<svg width="28" height="29" viewBox="0 0 28 29" fill="none" xmlns="http://www.w3.org/2000/svg">
<path d="M2.3335 14.1069H10.5002C12.4835 14.1069 14.0002 15.6236 14.0002 17.6069C14.0002 19.5903 12.4835 21.1069 10.5002 21.1069H3.50016C2.80016 21.1069 2.3335 20.6403 2.3335 19.9403V8.2736C2.3335 7.5736 2.80016 7.10693 3.50016 7.10693H9.3335C11.3168 7.10693 12.8335 8.6236 12.8335 10.6069C12.8335 12.5903 11.3168 14.1069 9.3335 14.1069H2.3335Z" stroke="black" stroke-width="1.5" stroke-miterlimit="10"/>
<path d="M16.3335 16.4403H25.6668C25.6668 13.8736 23.5668 11.7736 21.0002 11.7736C18.4335 11.7736 16.3335 13.8736 16.3335 16.4403ZM16.3335 16.4403C16.3335 19.0069 18.4335 21.1069 21.0002 21.1069H22.9835M22.7502 8.85693H19.2502" stroke="black" stroke-width="1.5" stroke-miterlimit="10" stroke-linecap="round" stroke-linejoin="round"/>
</svg>
