<svg width="24" height="25" viewBox="0 0 24 25" fill="none" xmlns="http://www.w3.org/2000/svg">
<path d="M18.5 4.89697C15.9 9.44697 10.89 12.057 5.67 11.587L2.5 11.297M5.5 19.477C8.1 14.927 13.11 12.317 18.33 12.787L21.5 13.077" stroke="black" stroke-width="1.5" stroke-miterlimit="10" stroke-linecap="round" stroke-linejoin="round"/>
<path d="M12 22.1069C17.523 22.1069 22 17.6299 22 12.1069C22 6.58393 17.523 2.10693 12 2.10693C6.477 2.10693 2 6.58393 2 12.1069C2 17.6299 6.477 22.1069 12 22.1069Z" stroke="black" stroke-width="1.5" stroke-miterlimit="10" stroke-linecap="round" stroke-linejoin="round"/>
<path d="M7.62988 3.10693L10.8099 7.05693C12.9399 9.69693 14.4499 12.7669 15.2499 16.0569L16.4599 21.0469" stroke="black" stroke-width="1.5" stroke-miterlimit="10" stroke-linecap="round" stroke-linejoin="round"/>
</svg>
