<svg width="37" height="33" viewBox="0 0 37 33" fill="none" xmlns="http://www.w3.org/2000/svg">
<path d="M36.425 11.7843L20.147 0.782372C19.7039 0.480536 19.1801 0.319092 18.6438 0.319092C18.1075 0.319092 17.5836 0.480536 17.1405 0.782372L0.844727 11.7843L2.73048 14.5392L4.40275 13.4195V30.5355C4.40275 31.0069 4.59018 31.459 4.92381 31.7923C5.25744 32.1256 5.70994 32.3129 6.18177 32.3129H16.8558V23.426H20.4139V32.3129H31.088C31.5598 32.3129 32.0123 32.1256 32.3459 31.7923C32.6795 31.459 32.867 31.0069 32.867 30.5355V13.4195L34.5392 14.5392L36.425 11.7843ZM29.3089 28.7581H23.9719V21.6487C23.9719 21.1773 23.7845 20.7252 23.4508 20.3919C23.1172 20.0586 22.6647 19.8713 22.1929 19.8713H15.0768C14.605 19.8713 14.1525 20.0586 13.8189 20.3919C13.4853 20.7252 13.2978 21.1773 13.2978 21.6487V28.7581H7.96078V10.789L18.6349 3.67948L29.3089 10.789V28.7581Z" fill="#3A3A3A"/>
</svg>
