<svg width="24" height="25" viewBox="0 0 24 25" fill="none" xmlns="http://www.w3.org/2000/svg">
<path d="M9 22.1069H15C20 22.1069 22 20.1069 22 15.1069V9.10693C22 4.10693 20 2.10693 15 2.10693H9C4 2.10693 2 4.10693 2 9.10693V15.1069C2 20.1069 4 22.1069 9 22.1069Z" stroke="black" stroke-width="1.5" stroke-linecap="round" stroke-linejoin="round"/>
<path d="M12 15.6069C12.4596 15.6069 12.9148 15.5164 13.3394 15.3405C13.764 15.1646 14.1499 14.9068 14.4749 14.5818C14.7999 14.2568 15.0577 13.871 15.2336 13.4463C15.4095 13.0217 15.5 12.5666 15.5 12.1069C15.5 11.6473 15.4095 11.1922 15.2336 10.7675C15.0577 10.3429 14.7999 9.95707 14.4749 9.63206C14.1499 9.30705 13.764 9.04925 13.3394 8.87335C12.9148 8.69746 12.4596 8.60693 12 8.60693C11.0717 8.60693 10.1815 8.97568 9.52513 9.63206C8.86875 10.2884 8.5 11.1787 8.5 12.1069C8.5 13.0352 8.86875 13.9254 9.52513 14.5818C10.1815 15.2382 11.0717 15.6069 12 15.6069Z" stroke="black" stroke-width="1.5" stroke-linecap="round" stroke-linejoin="round"/>
<path d="M17.6362 7.10693H17.6482" stroke="black" stroke-width="2" stroke-linecap="round" stroke-linejoin="round"/>
</svg>
