<svg width="37" height="30" viewBox="0 0 37 30" fill="none" xmlns="http://www.w3.org/2000/svg">
<path d="M34.8292 7.22044H27.6242V5.49534C27.6242 4.12278 27.0549 2.80642 26.0415 1.83587C25.0281 0.865319 23.6536 0.320068 22.2205 0.320068H15.0155C13.5823 0.320068 12.2078 0.865319 11.1944 1.83587C10.181 2.80642 9.61172 4.12278 9.61172 5.49534V7.22044H2.40672C1.929 7.22044 1.47084 7.40219 1.13304 7.7257C0.795243 8.04922 0.605469 8.48801 0.605469 8.94553V27.9215C0.605469 28.3791 0.795243 28.8178 1.13304 29.1414C1.47084 29.4649 1.929 29.6466 2.40672 29.6466H34.8292C35.307 29.6466 35.7651 29.4649 36.1029 29.1414C36.4407 28.8178 36.6305 28.3791 36.6305 27.9215V8.94553C36.6305 8.48801 36.4407 8.04922 36.1029 7.7257C35.7651 7.40219 35.307 7.22044 34.8292 7.22044ZM13.2142 5.49534C13.2142 5.03782 13.404 4.59904 13.7418 4.27552C14.0796 3.952 14.5378 3.77025 15.0155 3.77025H22.2205C22.6982 3.77025 23.1564 3.952 23.4942 4.27552C23.832 4.59904 24.0217 5.03782 24.0217 5.49534V7.22044H13.2142V5.49534ZM33.028 26.1964H4.20797V17.571H33.028V26.1964ZM33.028 15.8459H4.20797V10.6706H33.028V15.8459Z" fill="#3A3A3A"/>
</svg>
