<svg width="169" height="53" viewBox="0 0 169 53" fill="none" xmlns="http://www.w3.org/2000/svg">
<path d="M88.7411 18.7895C87.5741 16.7695 85.82 15.1524 83.712 14.1532C81.317 13.0559 78.7036 12.5185 76.07 12.5817H67.269V40.6347H75.2056C80.025 40.6347 83.7837 39.4364 86.4819 37.0397C89.1796 34.643 90.5285 31.0741 90.5288 26.3332C90.5288 23.3471 89.9329 20.8325 88.7411 18.7895ZM75.7557 35.7235H73.2019V17.4536H76.3844C78.9775 17.4536 80.9551 18.187 82.3171 19.6539C83.6789 21.1209 84.36 23.3998 84.3602 26.4903C84.3602 32.6459 81.4921 35.7236 75.7557 35.7235Z" fill="url(#paint0_linear_54_7282)"/>
<path d="M108.814 24.9974L118.597 12.5818H111.997L104.414 22.1292C104.021 22.6793 103.628 23.2294 103.235 23.7794C102.842 24.3295 102.449 24.8795 102.056 25.4296V12.5818H96.1235V40.6349H102.056V30.6159L104.571 28.8086L111.918 40.6349H118.676L108.814 24.9974Z" fill="url(#paint1_linear_54_7282)"/>
<path d="M121.763 39.5578C124.224 40.5685 126.864 41.0685 129.524 41.0276C132.956 41.0276 135.605 40.2877 137.471 38.8078C138.377 38.1089 139.103 37.2045 139.589 36.1695C140.076 35.1344 140.31 33.9984 140.27 32.8553C140.314 31.5702 140.018 30.2963 139.412 29.162C138.804 28.1282 137.973 27.2425 136.981 26.5689C135.774 25.7477 134.495 25.0376 133.16 24.4472C131.744 23.8219 130.366 23.1135 129.033 22.3256C128.61 22.0958 128.256 21.7549 128.012 21.3396C127.767 20.9243 127.64 20.4502 127.644 19.9682C127.633 19.5783 127.712 19.1911 127.875 18.8368C128.038 18.4824 128.281 18.1705 128.584 17.9251C129.362 17.3535 130.317 17.0752 131.281 17.1393C132.385 17.1377 133.484 17.283 134.55 17.5715C135.74 17.9044 136.912 18.2999 138.061 18.7566V13.3661C137.29 13.1031 136.541 12.8809 135.816 12.6995C134.399 12.3526 132.944 12.181 131.485 12.1887C128.433 12.1887 126.023 12.8894 124.253 14.2907C122.481 15.6922 121.596 17.6502 121.597 20.1646C121.565 21.3041 121.803 22.4349 122.291 23.465C122.73 24.3502 123.333 25.1436 124.069 25.8027C124.761 26.4241 125.522 26.9646 126.336 27.4136C127.126 27.8458 127.861 28.2191 128.543 28.5334C129.632 29.0312 130.599 29.4961 131.444 29.9282C132.185 30.2886 132.867 30.7588 133.467 31.323C133.71 31.556 133.903 31.8368 134.033 32.1478C134.164 32.4588 134.228 32.7933 134.223 33.1303C134.232 33.5362 134.151 33.939 133.984 34.3095C133.818 34.6799 133.572 35.0086 133.262 35.2717C132.622 35.8351 131.539 36.1166 130.014 36.1164C128.507 36.1107 127.01 35.8653 125.581 35.3895C124.27 34.9622 122.998 34.4991 121.763 34.0003L121.763 39.5578Z" fill="url(#paint2_linear_54_7282)"/>
<path d="M168.305 12.5815H162.373V23.5829H151.253V12.5815H145.321V40.6349H151.253V28.5335H162.373V40.6349H168.305V12.5815Z" fill="url(#paint3_linear_54_7282)"/>
<path d="M30.2392 26.1648C30.2378 26.5545 30.2456 26.4168 30.2271 28.6107C30.9812 28.7252 31.4895 28.895 32.0706 28.269C33.8007 26.3612 35.6591 24.5739 37.6328 22.9194C37.8115 22.7736 37.8144 22.7536 37.6797 22.5662C37.2538 21.9738 36.8529 21.4776 36.4834 20.9033C36.4327 20.8246 36.5252 20.7362 36.6106 20.7318C37.5226 20.7486 38.4091 21.0356 39.1578 21.5567C39.306 21.6509 39.301 21.651 39.4454 21.5511C40.3538 20.9154 41.3141 20.3572 42.3162 19.8826C42.5561 19.7706 42.568 19.7285 42.4247 19.5059C42.0658 18.9481 41.6726 18.4793 41.2507 17.7354C41.2216 17.6519 41.3258 17.5856 41.4194 17.5856C42.3967 17.585 43.33 18.1242 44.3491 18.9845C44.4593 19.0775 44.4476 19.0751 44.5866 19.0365C45.6604 18.7361 46.7691 18.5787 47.8841 18.5684C48.1966 18.5656 48.2155 18.456 48.1402 18.1467C47.9003 17.1624 46.8546 15.7606 44.693 15.4667C38.9116 14.6806 33.2373 21.0691 30.2392 26.1648Z" fill="url(#paint4_linear_54_7282)"/>
<path d="M38.6322 11.2952C38.9026 11.139 38.8141 11.0772 38.6464 10.8056C38.2754 10.2047 36.7256 9.43939 34.1613 10.5376C32.1251 11.4096 30.0974 13.8985 28.6934 16.0227C29.8686 18.8575 30.1312 21.8084 30.2141 24.6605C31.2687 21.4447 33.5393 14.2356 38.6322 11.2952Z" fill="url(#paint5_linear_54_7282)"/>
<path d="M52.4838 28.1643C52.5711 27.5121 52.5017 26.8484 52.2815 26.2283C52.0613 25.6082 51.6965 25.0495 51.2173 24.5985C47.7843 21.2409 35.1311 23.288 29.6069 33.341C29.1076 34.377 28.7314 35.468 28.486 36.5916C27.3104 35.7699 24.1338 33.2681 22.071 34.4028C21.7553 34.6793 21.3519 34.835 20.9323 34.8423C19.3943 34.6556 17.8456 34.5713 16.2964 34.5899C16.0716 34.5937 16.0588 34.5828 16.0336 34.3594C15.9303 33.4447 15.8815 32.6401 15.7941 31.9866C15.7817 31.8938 15.6375 31.8753 15.585 31.9429C15.081 32.7197 14.7341 33.5878 14.5638 34.498C14.5204 34.6796 14.5213 34.6789 14.3355 34.6965C13.2258 34.7957 12.1273 34.9941 11.053 35.2892C10.8064 35.3585 10.7749 35.3388 10.7271 35.087C10.5733 34.2771 10.4645 33.5171 10.2838 32.5709C10.2714 32.5523 10.2546 32.5371 10.2349 32.5266C10.2152 32.516 10.1933 32.5105 10.1709 32.5105C10.1486 32.5105 10.1266 32.516 10.1069 32.5266C10.0873 32.5371 10.0705 32.5523 10.0581 32.5709C9.51323 33.5726 9.20475 34.6856 9.15627 35.8249C9.14344 35.9811 9.14899 35.9733 9.00694 36.0395C7.93055 36.5299 6.94891 37.206 6.10697 38.0368C5.88576 38.2583 5.77258 38.2081 5.60315 37.9427C5.2948 37.4532 5.1041 36.8989 5.04602 36.3232C4.98795 35.7476 5.06408 35.1663 5.26843 34.625C7.04098 29.9625 18.05 27.7099 28.2573 35.8495C29.4096 36.7684 24.1166 29.5727 22.0991 30.628C21.9364 30.7225 21.7526 30.7749 21.5646 30.7803C21.3765 30.7857 21.1901 30.744 21.0222 30.659C19.4816 29.8377 17.8617 29.1745 16.1874 28.6795C15.9834 28.6198 15.9775 28.6114 16.0021 28.4002C16.1108 27.4655 16.2355 26.5634 16.2591 26.1351C16.2636 26.0533 16.1439 26.0086 16.066 26.0438C15.5389 26.282 15.0881 26.9726 14.514 28.065C14.4241 28.236 14.4229 28.2368 14.2333 28.1992C13.1065 27.9732 11.9619 27.8474 10.8128 27.8232C10.566 27.8187 10.5448 27.7961 10.5578 27.5496C10.6048 26.6564 10.6862 25.9084 10.6862 25.1599C10.6724 25.0725 10.5492 25.063 10.4667 25.1073C9.88074 25.4225 9.39312 26.4434 8.88935 27.7518C8.83064 27.9042 8.83712 27.8993 8.67471 27.917C7.45167 28.0472 6.24906 28.326 5.09347 28.7472C4.79832 28.8554 4.79812 28.7767 4.70857 28.4701C4.49064 27.8085 4.49034 27.0945 4.70773 26.4327C4.92511 25.771 5.34874 25.1962 5.91654 24.7927C10.3344 21.1163 21.9137 23.8607 28.5003 35.223C27.8738 32.1209 27.1087 26.6962 24.744 27.1703C24.578 27.205 24.4054 27.1891 24.2487 27.1246C24.0919 27.06 23.9582 26.9498 23.8649 26.8082C20.7569 22.7581 17.656 20.0242 9.50295 18.5686C9.19526 18.5136 9.16284 18.454 9.2445 18.1469C9.44551 17.3589 9.88803 16.6534 10.5101 16.1295C11.1321 15.6055 11.9025 15.2893 12.7132 15.2252C19.4358 14.2874 26.6222 20.8866 28.6909 32.1939C30.0973 29.087 29.4121 25.9392 28.022 25.5068C27.8749 25.4743 27.7413 25.3971 27.6396 25.2858C27.5379 25.1745 27.4731 25.0346 27.4539 24.8851C27.1051 22.7931 26.4459 20.765 25.4981 18.8678C25.4051 18.6844 25.4063 18.6777 25.566 18.5482C26.2735 17.9748 26.9145 17.549 27.5134 17.0261C27.5839 16.9646 27.5234 16.8383 27.4388 16.826C26.543 16.7572 25.6437 16.8998 24.8132 17.2424C24.6217 17.3127 24.6158 17.311 24.5051 17.1396C24.0018 16.3614 23.4432 15.6203 22.8337 14.922C22.6727 14.7373 22.675 14.7079 22.8633 14.5512C23.3414 14.1532 23.8353 13.8096 24.3969 13.2612C24.448 13.1891 24.3695 13.0805 24.2764 13.0704C23.4116 13.0277 22.5497 13.1996 21.7675 13.5709C21.6084 13.6361 21.6144 13.6372 21.4897 13.5189C20.6206 12.6977 19.6886 11.9456 18.7024 11.2695C18.4446 11.0919 18.4558 10.9975 18.6893 10.7799C19.7567 9.78522 21.5472 9.3003 23.6293 10.3722C25.9536 11.5703 27.756 13.5815 28.6933 16.0227V0.26019C28.6933 0.0175588 28.6736 -0.00187337 28.431 0.000123943C21.0496 0.00974537 13.9266 2.71858 8.40408 7.61621C3.02304 12.4934 0 19.1083 0 26.0057C0 32.9031 3.02304 39.518 8.40408 44.3952C13.9266 49.2928 21.0496 52.0016 28.431 52.0112C28.6736 52.0132 28.6933 51.9938 28.6933 51.7512V37.1109C28.6837 36.6869 29.0554 36.2986 29.6426 35.8745C31.6389 34.5274 33.7393 33.6905 34.7041 34.6648C34.8489 34.819 35.0266 34.9386 35.2239 35.0147C35.4213 35.0908 35.6333 35.1214 35.8441 35.1043C38.0545 34.7718 40.2911 34.6469 42.5248 34.7313C42.752 34.7422 42.7661 34.7306 42.7952 34.5051C42.9041 33.6596 42.9746 32.9207 43.0579 32.2987C43.0703 32.2059 43.1992 32.2027 43.2669 32.2549C43.7562 32.6318 44.2391 33.547 44.565 34.7569C44.6101 34.9246 44.606 34.921 44.7778 34.9466C45.5701 35.0612 46.3528 35.2342 47.1195 35.4643C47.3662 35.5396 47.3991 35.5198 47.4504 35.267C47.5784 34.6364 47.6941 34.011 47.84 33.2471C47.8737 33.1653 48.0018 33.1785 48.0656 33.2471C48.8065 34.0923 49.2521 35.1558 49.3349 36.2768C49.349 36.4138 49.342 36.403 49.4603 36.4737C50.1141 36.8536 50.6986 37.3417 51.189 37.9172C51.3894 38.1579 51.5263 38.0935 51.6929 37.8232C52.0369 37.3545 52.2563 36.8062 52.3306 36.2296C52.4049 35.653 52.3316 35.067 52.1175 34.5265C50.7043 30.3498 37.3358 28.2514 29.1518 35.7161C29.3016 35.196 29.5123 34.6954 29.7796 34.2248C31.1327 31.5852 33.398 29.6943 34.8405 30.7091C35.0015 30.8094 35.1861 30.8652 35.3757 30.8708C35.5653 30.8765 35.753 30.8318 35.9196 30.7413C37.797 29.8663 39.7324 29.1216 41.7121 28.5124C41.9127 28.4521 41.9176 28.4451 41.896 28.2368C41.8096 27.4033 41.7212 26.6314 41.6997 26.239C41.6952 26.1573 41.8041 26.1178 41.8928 26.1478C42.4438 26.3344 43.0218 26.8574 43.6439 27.8229C43.7426 27.976 43.7398 27.9748 43.9178 27.9361C44.9485 27.7056 45.9958 27.5569 47.0499 27.4916C47.2886 27.4783 47.3057 27.4595 47.2952 27.2207C47.2632 26.4916 47.2206 25.8617 47.2206 25.2118C47.2343 25.1245 47.3437 25.1199 47.44 25.1593C48.0147 25.3942 48.6701 26.2285 49.2365 27.4225C49.2996 27.5555 49.2903 27.5489 49.4362 27.5689C50.3604 27.6689 51.2531 27.9627 52.0561 28.4311C52.3235 28.5985 52.422 28.4776 52.4838 28.1643Z" fill="url(#paint6_linear_54_7282)"/>
<defs>
<linearGradient id="paint0_linear_54_7282" x1="78.8989" y1="12.5767" x2="78.8989" y2="40.6347" gradientUnits="userSpaceOnUse">
<stop stop-color="#2E6ECC"/>
<stop offset="1" stop-color="#0B6AF7"/>
</linearGradient>
<linearGradient id="paint1_linear_54_7282" x1="107.4" y1="12.5818" x2="107.4" y2="40.6349" gradientUnits="userSpaceOnUse">
<stop stop-color="#2E6ECC"/>
<stop offset="1" stop-color="#0B6AF7"/>
</linearGradient>
<linearGradient id="paint2_linear_54_7282" x1="130.934" y1="12.1885" x2="130.934" y2="41.03" gradientUnits="userSpaceOnUse">
<stop stop-color="#2E6ECC"/>
<stop offset="1" stop-color="#0B6AF7"/>
</linearGradient>
<linearGradient id="paint3_linear_54_7282" x1="156.813" y1="12.5815" x2="156.813" y2="40.6349" gradientUnits="userSpaceOnUse">
<stop stop-color="#2E6ECC"/>
<stop offset="1" stop-color="#0B6AF7"/>
</linearGradient>
<linearGradient id="paint4_linear_54_7282" x1="39.2021" y1="15.4006" x2="39.2021" y2="28.7215" gradientUnits="userSpaceOnUse">
<stop stop-color="#2E6ECC"/>
<stop offset="1" stop-color="#0B6AF7"/>
</linearGradient>
<linearGradient id="paint5_linear_54_7282" x1="33.7491" y1="9.9812" x2="33.7491" y2="24.6605" gradientUnits="userSpaceOnUse">
<stop stop-color="#2E6ECC"/>
<stop offset="1" stop-color="#0B6AF7"/>
</linearGradient>
<linearGradient id="paint6_linear_54_7282" x1="26.2602" y1="0" x2="26.2602" y2="52.0114" gradientUnits="userSpaceOnUse">
<stop stop-color="#2E6ECC"/>
<stop offset="1" stop-color="#0B6AF7"/>
</linearGradient>
</defs>
</svg>
