<svg width="33" height="33" viewBox="0 0 33 33" fill="none" xmlns="http://www.w3.org/2000/svg">
<path d="M31.1267 8.65123H10.3122C9.8876 8.65123 9.48035 8.81976 9.18008 9.11975C8.87981 9.41974 8.71113 9.82661 8.71113 10.2509V26.2472C8.71113 26.6714 8.87981 27.0783 9.18008 27.3783C9.48035 27.6783 9.8876 27.8468 10.3122 27.8468H26.3234L32.7278 32.6457V10.2509C32.7278 9.82661 32.5591 9.41974 32.2588 9.11975C31.9586 8.81976 31.5513 8.65123 31.1267 8.65123ZM29.5256 26.4231L27.1559 24.6475H11.9133V11.8505H29.5256V26.4231ZM16.7167 19.8486H24.7222V21.4483H16.7167V19.8486ZM3.90779 16.6494H5.5089V19.8486H2.30668C1.88204 19.8486 1.47479 19.6801 1.17452 19.3801C0.874254 19.0801 0.705566 18.6733 0.705566 18.249V2.25271C0.705566 1.82846 0.874254 1.42159 1.17452 1.1216C1.47479 0.821608 1.88204 0.653076 2.30668 0.653076H23.1211C23.5458 0.653076 23.953 0.821608 24.2533 1.1216C24.5536 1.42159 24.7222 1.82846 24.7222 2.25271V5.45197H21.52V3.85234H3.90779V16.6494ZM26.3234 16.6494H15.1156V15.0498H26.3234V16.6494Z" fill="#3A3A3A"/>
</svg>
