<svg width="41" height="34" viewBox="0 0 41 34" fill="none" xmlns="http://www.w3.org/2000/svg">
<path d="M36.9315 22.0516L33.9034 20.894V19.7013L34.3384 18.9822C35.1904 17.5967 35.6424 15.9992 35.6437 14.3692V12.9309C35.6437 11.5354 35.0936 10.197 34.1145 9.21019C33.1354 8.22338 31.8074 7.669 30.4227 7.669C29.038 7.669 27.71 8.22338 26.7309 9.21019C25.7517 10.197 25.2017 11.5354 25.2017 12.9309V14.3692C25.2029 15.9992 25.6549 17.5967 26.5069 18.9822L26.942 19.7013V20.894L25.2017 21.543C24.8788 21.3522 24.5413 21.188 24.1923 21.0519L19.9284 19.2979V16.1407C21.076 14.0886 21.6924 11.7784 21.721 9.42298V7.669C21.721 5.80826 20.9876 4.02373 19.682 2.70799C18.3765 1.39225 16.6059 0.653076 14.7596 0.653076C12.9134 0.653076 11.1427 1.39225 9.8372 2.70799C8.5317 4.02373 7.79827 5.80826 7.79827 7.669V9.42298C7.80209 11.7916 8.4008 14.1208 9.53861 16.1933V19.4207L5.27478 21.1747C3.98885 21.6784 2.88045 22.556 2.0903 23.6958C1.30016 24.8357 0.863898 26.1865 0.836914 27.5767L0.836914 32.2247C0.836914 32.6899 1.02027 33.1361 1.34665 33.465C1.67302 33.7939 2.11569 33.9787 2.57725 33.9787H39.1244C39.5859 33.9787 40.0286 33.7939 40.355 33.465C40.6814 33.1361 40.8647 32.6899 40.8647 32.2247V27.7872C40.8637 26.5419 40.4869 25.3265 39.7844 24.3021C39.0819 23.2777 38.087 22.4928 36.9315 22.0516ZM28.6823 12.4924C28.6823 12.0273 28.8657 11.5811 29.1921 11.2522C29.5184 10.9233 29.9611 10.7385 30.4227 10.7385C30.8842 10.7385 31.3269 10.9233 31.6533 11.2522C31.9797 11.5811 32.163 12.0273 32.163 12.4924V15.0182C32.1626 15.9146 31.935 16.7961 31.5017 17.579L30.9274 18.6314C30.8898 18.7006 30.8344 18.7583 30.767 18.7984C30.6996 18.8385 30.6228 18.8596 30.5445 18.8594H30.3009C30.2226 18.8596 30.1457 18.8385 30.0783 18.7984C30.0109 18.7583 29.9555 18.7006 29.918 18.6314L29.3437 17.579C28.9104 16.7961 28.6827 15.9146 28.6823 15.0182V12.4924ZM11.2789 7.4059C11.2789 6.47553 11.6457 5.58327 12.2984 4.9254C12.9512 4.26753 13.8365 3.89794 14.7596 3.89794C15.6828 3.89794 16.5681 4.26753 17.2208 4.9254C17.8736 5.58327 18.2403 6.47553 18.2403 7.4059V9.9141C18.24 11.6459 17.8155 13.3509 17.0047 14.8779L16.5 15.9478C16.352 16.2279 16.1314 16.4622 15.8617 16.6259C15.592 16.7896 15.2833 16.8766 14.9685 16.8774H14.6204C14.2938 16.8896 13.9705 16.8088 13.6873 16.6444C13.4042 16.48 13.1727 16.2386 13.0193 15.9478L12.445 14.8779C11.6583 13.3447 11.2578 11.64 11.2789 9.9141V7.4059ZM25.2017 30.4708H4.31759V27.4013C4.31692 26.6987 4.52558 26.0121 4.91655 25.4305C5.30752 24.8488 5.86279 24.3988 6.51042 24.1389L13.0193 21.5605V19.8066C13.5774 20.0108 14.1659 20.1175 14.7596 20.1223C15.3533 20.1175 15.9419 20.0108 16.5 19.8066V21.5605L22.974 24.0512C23.6309 24.3067 24.1955 24.7569 24.5932 25.3425C24.991 25.9281 25.2031 26.6215 25.2017 27.3311V30.4708ZM37.384 30.4708H28.6823V27.5767C28.6749 26.3429 28.3447 25.1329 27.7252 24.0687L29.5525 23.3671V21.8236C29.781 21.8764 30.0143 21.9058 30.2486 21.9113H30.5967C30.8311 21.9058 31.0643 21.8764 31.2928 21.8236V23.3671L35.6959 25.1211C36.2009 25.301 36.6388 25.6332 36.9501 26.0724C37.2614 26.5117 37.4312 27.0369 37.4362 27.5767V30.4708H37.384Z" fill="#3A3A3A"/>
</svg>
