<svg width="30" height="32" viewBox="0 0 30 32" fill="none" xmlns="http://www.w3.org/2000/svg">
<path d="M29.7413 26.4174L26.5783 19.1551C26.5783 19.1551 25.9098 14.2277 25.2739 9.39686C24.9463 6.97776 23.7411 4.75822 21.8821 3.15021C20.023 1.5422 17.6364 0.654923 15.1652 0.653078C12.6888 0.651539 10.2962 1.53931 8.43339 3.15096C6.57059 4.76261 5.36462 6.98819 5.04023 9.41296L3.75219 19.1551L0.589146 26.4174C0.52587 26.5596 0.492584 26.713 0.49132 26.8683C0.48916 27.0283 0.519195 27.187 0.57968 27.3354C0.640165 27.4838 0.729896 27.6189 0.843661 27.7327C0.957427 27.8466 1.09296 27.937 1.24239 27.9987C1.39183 28.0604 1.55218 28.0921 1.71415 28.0921H11.9044C11.9044 28.9463 12.2479 29.7654 12.8594 30.3694C13.471 30.9734 14.3004 31.3127 15.1652 31.3127C16.0301 31.3127 16.8595 30.9734 17.471 30.3694C18.0825 29.7654 18.4261 28.9463 18.4261 28.0921H28.6489C28.849 28.0904 29.0454 28.0396 29.2207 27.9442C29.3959 27.8489 29.5443 27.712 29.6527 27.5459C29.761 27.3798 29.8258 27.1897 29.8413 26.9927C29.8568 26.7957 29.8224 26.598 29.7413 26.4174ZM15.1652 3.47105C16.8993 3.47165 18.5742 4.09397 19.8787 5.22239C21.1832 6.3508 22.0285 7.90856 22.2576 9.60619C22.7141 12.9878 23.1707 16.6109 23.3989 18.3661H7.01306L8.07284 9.60619C8.30194 7.90856 9.14728 6.3508 10.4518 5.22239C11.7562 4.09397 13.4311 3.47165 15.1652 3.47105ZM4.60001 24.8072L6.71958 19.9763H23.6109L25.7304 24.8072H4.5348H4.60001Z" fill="#3A3A3A"/>
</svg>
