<svg width="19" height="19" viewBox="0 0 19 19" fill="none" xmlns="http://www.w3.org/2000/svg">
<path fill-rule="evenodd" clip-rule="evenodd" d="M10.0686 0.429503C9.99477 0.3534 9.90643 0.292894 9.8088 0.251575C9.71116 0.210256 9.60623 0.188965 9.50021 0.188965C9.39419 0.188965 9.28926 0.210256 9.19163 0.251575C9.09399 0.292894 9.00565 0.3534 8.93184 0.429503L7.26994 2.14336L4.94511 1.60008C4.84188 1.57597 4.73486 1.57283 4.63039 1.59086C4.52593 1.60889 4.42614 1.64771 4.33696 1.70502C4.24778 1.76233 4.17102 1.83697 4.11123 1.92451C4.05143 2.01204 4.00983 2.11069 3.98887 2.21461L3.51714 4.55518L1.26772 5.35496C1.16785 5.3905 1.07613 5.44574 0.998006 5.51739C0.919882 5.58904 0.856943 5.67566 0.81292 5.77209C0.768898 5.86852 0.744689 5.97282 0.741728 6.07878C0.738768 6.18475 0.757117 6.29023 0.795687 6.38897L1.66405 8.61257L0.204312 10.5019C0.13949 10.5858 0.0921749 10.6818 0.0651735 10.7843C0.038172 10.8869 0.0320341 10.9938 0.0471239 11.0987C0.0622137 11.2036 0.0982238 11.3045 0.153018 11.3952C0.207813 11.486 0.280276 11.5648 0.366109 11.627L2.29877 13.0283L2.09214 15.4066C2.08295 15.5122 2.09506 15.6185 2.12776 15.7194C2.16045 15.8202 2.21307 15.9135 2.28248 15.9936C2.35189 16.0737 2.43669 16.1391 2.53184 16.1859C2.62699 16.2326 2.73056 16.2597 2.83641 16.2657L5.22031 16.3993L6.33211 18.5122C6.38151 18.6059 6.44923 18.6888 6.53125 18.7559C6.61328 18.823 6.70794 18.873 6.80963 18.9028C6.91132 18.9327 7.01796 18.9418 7.12324 18.9297C7.22852 18.9175 7.3303 18.8844 7.42253 18.8322L9.50006 17.656L11.5776 18.8322C11.6698 18.8844 11.7716 18.9176 11.877 18.9298C11.9823 18.9419 12.0889 18.9328 12.1907 18.903C12.2924 18.8731 12.3871 18.8232 12.4691 18.756C12.5512 18.6889 12.6189 18.606 12.6683 18.5122L13.7801 16.3993L16.164 16.2657C16.2699 16.2597 16.3734 16.2326 16.4686 16.1859C16.5637 16.1391 16.6485 16.0737 16.7179 15.9936C16.7874 15.9135 16.84 15.8202 16.8727 15.7194C16.9054 15.6185 16.9175 15.5122 16.9083 15.4066L16.7014 13.0283L18.6343 11.627C18.7201 11.5648 18.7926 11.486 18.8474 11.3952C18.9022 11.3045 18.9382 11.2036 18.9533 11.0987C18.9684 10.9938 18.9622 10.8869 18.9352 10.7843C18.9082 10.6818 18.8609 10.5858 18.7961 10.5019L17.3364 8.61286L18.2047 6.38897C18.2433 6.29023 18.2617 6.18475 18.2587 6.07878C18.2557 5.97282 18.2315 5.86852 18.1875 5.77209C18.1435 5.67566 18.0805 5.58904 18.0024 5.51739C17.9243 5.44574 17.8326 5.3905 17.7327 5.35496L15.4833 4.55518L15.0113 2.21491C14.9903 2.11102 14.9487 2.0124 14.8889 1.92489C14.8292 1.83737 14.7524 1.76275 14.6633 1.70544C14.5741 1.64813 14.4744 1.6093 14.3699 1.59126C14.2655 1.57321 14.1585 1.57631 14.0553 1.60038L11.7308 2.14366L10.0683 0.429503H10.0686ZM13.8784 7.58627L13.0388 6.74671L8.70859 11.0769L6.75337 9.12171L5.91352 9.96127L8.70859 12.7563L13.8784 7.58627V7.58627Z" fill="url(#paint0_linear_1_4373)"/>
<defs>
<linearGradient id="paint0_linear_1_4373" x1="21.2418" y1="-0.0594506" x2="-3.38253" y2="0.335096" gradientUnits="userSpaceOnUse">
<stop stop-color="#00B7E8"/>
<stop offset="1" stop-color="#BEC711"/>
</linearGradient>
</defs>
</svg>
